<?xml version="1.0" encoding="utf-8" ?>
<svg baseProfile="full" height="369px" version="1.1" viewBox="0 0 380 369" width="380px" xmlns="http://www.w3.org/2000/svg" xmlns:ev="http://www.w3.org/2001/xml-events" xmlns:xlink="http://www.w3.org/1999/xlink"><defs><linearGradient id="logoGrad" x1="0%" x2="100%" y1="0%" y2="100%"><stop offset="0%" stop-color="#108696" stop-opacity="1" /><stop offset="100%" stop-color="#0d203b" stop-opacity="1" /></linearGradient></defs><defs><linearGradient id="logoGrad" x1="0%" x2="100%" y1="0%" y2="100%"><stop offset="0%" stop-color="#108696" stop-opacity="1" /><stop offset="100%" stop-color="#0d203b" stop-opacity="1" /></linearGradient></defs><path class="editable-logo" d="M 70.00,30.00 C 69.00,30.83 70.00,31.34 70.00,32.01 C 70.00,32.68 70.00,33.34 70.00,34.01 C 70.00,34.68 70.00,35.35 70.00,36.02 C 70.00,36.69 70.00,37.36 70.00,38.03 C 70.00,38.70 70.00,39.36 70.00,40.03 C 70.00,40.70 70.00,41.37 70.00,42.04 C 70.00,42.71 70.00,43.38 70.00,44.05 C 70.00,44.72 70.00,45.38 70.00,46.05 C 70.00,46.72 70.00,47.39 70.00,48.06 C 70.00,48.73 70.00,49.40 70.00,50.07 C 70.00,50.74 70.00,51.40 70.00,52.07 C 70.00,52.74 70.00,53.41 70.00,54.08 C 70.00,54.75 70.00,55.42 70.00,56.09 C 70.00,56.76 70.00,57.42 70.00,58.09 C 70.00,58.76 70.00,59.43 70.00,60.10 C 70.00,60.77 70.00,61.44 70.00,62.11 C 70.00,62.78 70.00,63.44 70.00,64.11 C 70.00,64.78 70.00,65.45 70.00,66.12 C 70.00,66.79 70.00,67.46 70.00,68.13 C 70.00,68.80 70.00,69.46 70.00,70.13 C 70.00,70.80 70.00,71.47 70.00,72.14 C 70.00,72.81 70.00,73.48 70.00,74.15 C 70.00,74.82 70.00,75.48 70.00,76.15 C 70.00,76.82 70.00,77.49 70.00,78.16 C 70.00,78.83 70.00,79.50 70.00,80.17 C 70.00,80.84 70.00,81.50 70.00,82.17 C 70.00,82.84 70.00,83.51 70.00,84.18 C 70.00,84.85 70.00,85.52 70.00,86.19 C 70.00,86.85 70.00,87.52 70.00,88.19 C 70.00,88.86 70.00,89.53 70.00,90.20 C 70.00,90.87 70.00,91.54 70.00,92.21 C 70.00,92.87 70.00,93.54 70.00,94.21 C 70.00,94.88 70.00,95.55 70.00,96.22 C 70.00,96.89 70.00,97.56 70.00,98.23 C 70.00,98.89 70.00,99.56 70.00,100.23 C 70.00,100.90 70.00,101.57 70.00,102.24 C 70.00,102.91 70.00,103.58 70.00,104.25 C 70.00,104.91 70.00,105.58 70.00,106.25 C 70.00,106.92 70.00,107.59 70.00,108.26 C 70.00,108.93 70.00,109.60 70.00,110.27 C 70.00,110.93 70.00,111.60 70.00,112.27 C 70.00,112.94 70.00,113.61 70.00,114.28 C 70.00,114.95 70.00,115.62 70.00,116.29 C 70.00,116.95 70.00,117.62 70.00,118.29 C 70.00,118.96 70.00,119.63 70.00,120.30 C 70.00,120.97 70.00,121.64 70.00,122.31 C 70.00,122.97 70.00,123.64 70.00,124.31 C 70.00,124.98 70.00,125.65 70.00,126.32 C 70.00,126.99 70.00,127.66 70.00,128.33 C 70.00,128.99 70.00,129.66 70.00,130.33 C 70.00,131.00 70.00,131.67 70.00,132.34 C 70.00,133.01 70.00,133.68 70.00,134.35 C 70.00,135.01 70.00,135.68 70.00,136.35 C 70.00,137.02 70.00,137.69 70.00,138.36 C 70.00,139.03 70.00,139.70 70.00,140.37 C 70.00,141.03 70.00,141.70 70.00,142.37 C 70.00,143.04 70.00,143.71 70.00,144.38 C 70.00,145.05 70.00,145.72 70.00,146.39 C 70.00,147.05 70.00,147.72 70.00,148.39 C 70.00,149.06 70.00,149.73 70.00,150.40 C 70.00,151.07 70.00,151.74 70.00,152.41 C 70.00,153.07 70.00,153.74 70.00,154.41 C 70.00,155.08 70.00,155.75 70.00,156.42 C 70.00,157.09 70.00,157.76 70.00,158.43 C 70.00,159.09 70.00,159.76 70.00,160.43 C 70.00,161.10 70.00,161.77 70.00,162.44 C 70.00,163.11 70.00,163.78 70.00,164.45 C 70.00,165.11 70.00,165.78 70.00,166.45 C 70.00,167.12 70.00,167.79 70.00,168.46 C 70.00,169.13 70.00,169.80 70.00,170.47 C 70.00,171.13 70.00,171.80 70.00,172.47 C 70.00,173.14 70.00,173.81 70.00,174.48 C 70.00,175.15 70.00,175.82 70.00,176.49 C 70.00,177.15 70.00,177.82 70.00,178.49 C 70.00,179.16 70.00,179.83 70.00,180.50 C 70.00,181.17 70.00,181.84 70.00,182.51 C 70.00,183.17 70.00,183.84 70.00,184.51 C 70.00,185.18 70.00,185.85 70.00,186.52 C 70.00,187.19 70.00,187.86 70.00,188.53 C 70.00,189.19 70.00,189.86 70.00,190.53 C 70.00,191.20 70.00,191.87 70.00,192.54 C 70.00,193.21 70.00,193.88 70.00,194.54 C 70.00,195.21 70.00,195.88 70.00,196.55 C 70.00,197.22 70.00,197.89 70.00,198.56 C 70.00,199.23 70.00,199.90 70.00,200.56 C 70.00,201.23 70.00,201.90 70.00,202.57 C 70.00,203.24 70.00,203.91 70.00,204.58 C 70.00,205.25 70.00,205.92 70.00,206.58 C 70.00,207.25 70.00,207.92 70.00,208.59 C 70.00,209.26 70.00,209.93 70.00,210.60 C 70.00,211.27 70.00,211.94 70.00,212.60 C 70.00,213.27 70.00,213.94 70.00,214.61 C 70.00,215.28 70.00,215.95 70.00,216.62 C 70.00,217.29 70.00,217.96 70.00,218.62 C 70.00,219.29 70.00,219.96 70.00,220.63 C 70.00,221.30 70.00,221.97 70.00,222.64 C 70.00,223.31 70.00,223.98 70.00,224.64 C 70.00,225.31 70.00,225.98 70.00,226.65 C 70.00,227.32 70.00,227.99 70.00,228.66 C 70.00,229.33 70.00,230.00 70.00,230.66 C 70.00,231.33 70.00,232.00 70.00,232.67 C 70.00,233.34 70.00,234.01 70.00,234.68 C 70.00,235.35 70.00,236.02 70.00,236.68 C 70.00,237.35 70.00,238.02 70.00,238.69 C 70.00,239.36 70.00,240.03 70.00,240.70 C 70.00,241.37 70.00,242.04 70.00,242.70 C 70.00,243.37 70.00,244.04 70.00,244.71 C 70.00,245.38 70.00,246.05 70.00,246.72 C 70.00,247.39 69.88,248.18 70.00,248.72 C 70.12,249.27 70.27,249.79 70.73,250.01 C 71.19,250.23 72.07,250.02 72.74,250.03 C 73.41,250.04 74.08,250.05 74.74,250.06 C 75.41,250.06 76.08,250.07 76.75,250.08 C 77.42,250.09 78.09,250.10 78.76,250.10 C 79.43,250.11 80.09,250.12 80.76,250.13 C 81.43,250.14 82.10,250.14 82.77,250.15 C 83.44,250.16 84.11,250.17 84.78,250.18 C 85.45,250.18 86.11,250.19 86.78,250.20 C 87.45,250.21 88.12,250.22 88.79,250.22 C 89.46,250.23 90.13,250.24 90.80,250.25 C 91.46,250.26 92.13,250.26 92.80,250.27 C 93.47,250.28 94.14,250.29 94.81,250.30 C 95.48,250.30 96.15,250.31 96.82,250.32 C 97.48,250.33 98.15,250.34 98.82,250.34 C 99.49,250.35 100.16,250.36 100.83,250.37 C 101.50,250.37 102.17,250.38 102.84,250.39 C 103.50,250.40 104.17,250.41 104.84,250.41 C 105.51,250.42 106.18,250.43 106.85,250.44 C 107.52,250.45 108.19,250.45 108.85,250.46 C 109.52,250.47 110.19,250.48 110.86,250.49 C 111.53,250.49 112.20,250.50 112.87,250.51 C 113.54,250.52 114.21,250.53 114.87,250.53 C 115.54,250.54 116.21,250.55 116.88,250.56 C 117.55,250.57 118.22,250.57 118.89,250.58 C 119.56,250.59 120.22,250.60 120.89,250.61 C 121.56,250.61 122.23,250.62 122.90,250.63 C 123.57,250.64 124.24,250.65 124.91,250.65 C 125.58,250.66 126.24,250.67 126.91,250.68 C 127.58,250.69 128.25,250.69 128.92,250.70 C 129.59,250.71 130.26,250.72 130.93,250.73 C 131.59,250.73 132.26,250.74 132.93,250.75 C 133.60,250.76 134.27,250.77 134.94,250.77 C 135.61,250.78 136.28,250.79 136.95,250.80 C 137.61,250.80 138.28,250.81 138.95,250.82 C 139.62,250.83 140.29,250.84 140.96,250.84 C 141.63,250.85 142.30,250.86 142.97,250.87 C 143.63,250.88 144.30,250.88 144.97,250.89 C 145.64,250.90 146.31,250.91 146.98,250.92 C 147.65,250.92 148.32,250.93 148.98,250.94 C 149.65,250.95 150.32,250.96 150.99,250.96 C 151.66,250.97 152.33,250.98 153.00,250.99 C 153.67,251.00 154.34,251.00 155.00,251.01 C 155.67,251.02 156.34,251.03 157.01,251.04 C 157.68,251.04 158.35,251.05 159.02,251.06 C 159.69,251.07 160.35,251.08 161.02,251.08 C 161.69,251.09 162.36,251.10 163.03,251.11 C 163.70,251.12 164.37,251.12 165.04,251.13 C 165.71,251.14 166.37,251.15 167.04,251.16 C 167.71,251.16 168.38,251.17 169.05,251.18 C 169.72,251.19 170.39,251.20 171.06,251.20 C 171.73,251.21 172.39,251.22 173.06,251.23 C 173.73,251.23 174.40,251.24 175.07,251.25 C 175.74,251.26 176.41,251.27 177.08,251.27 C 177.74,251.28 178.41,251.29 179.08,251.30 C 179.75,251.31 180.42,251.31 181.09,251.32 C 181.76,251.33 182.43,251.34 183.10,251.35 C 183.76,251.35 184.43,251.36 185.10,251.37 C 185.77,251.38 186.44,251.39 187.11,251.39 C 187.78,251.40 188.45,251.41 189.11,251.42 C 189.78,251.43 190.45,251.43 191.12,251.44 C 191.79,251.45 192.46,251.46 193.13,251.47 C 193.80,251.47 194.47,251.48 195.13,251.49 C 195.80,251.50 196.47,251.51 197.14,251.51 C 197.81,251.52 198.48,251.53 199.15,251.54 C 199.82,251.55 200.48,251.55 201.15,251.56 C 201.82,251.57 202.49,251.58 203.16,251.59 C 203.83,251.59 204.50,251.60 205.17,251.61 C 205.84,251.62 206.50,251.63 207.17,251.63 C 207.84,251.64 208.51,251.65 209.18,251.66 C 209.85,251.66 210.52,251.67 211.19,251.68 C 211.86,251.69 212.52,251.70 213.19,251.70 C 213.86,251.71 214.53,251.72 215.20,251.73 C 215.87,251.74 216.54,251.74 217.21,251.75 C 217.87,251.76 218.54,251.77 219.21,251.78 C 219.88,251.78 220.55,251.79 221.22,251.80 C 221.89,251.81 222.56,251.82 223.23,251.82 C 223.89,251.83 224.56,251.84 225.23,251.85 C 225.90,251.86 226.57,251.86 227.24,251.87 C 227.91,251.88 228.58,251.89 229.24,251.90 C 229.91,251.90 230.58,251.91 231.25,251.92 C 231.92,251.93 232.59,251.94 233.26,251.94 C 233.93,251.95 234.60,251.96 235.26,251.97 C 235.93,251.98 236.68,252.15 237.27,251.99 C 237.86,251.83 238.35,251.44 238.82,251.02 C 239.29,250.60 239.67,249.99 240.10,249.48 C 240.53,248.96 240.96,248.45 241.39,247.94 C 241.82,247.42 242.40,246.97 242.67,246.39 C 242.94,245.82 242.95,245.16 243.00,244.51 C 243.05,243.86 243.00,243.17 243.00,242.50 C 243.00,241.83 243.00,241.16 243.00,240.49 C 243.00,239.82 243.00,239.16 243.00,238.49 C 243.00,237.82 243.00,237.15 243.00,236.48 C 243.00,235.81 243.00,235.14 243.00,234.47 C 243.00,233.80 243.00,233.14 243.00,232.47 C 243.00,231.80 243.00,231.13 243.00,230.46 C 243.00,229.79 243.00,229.12 243.00,228.45 C 243.00,227.78 243.00,227.12 243.00,226.45 C 243.00,225.78 243.00,225.11 243.00,224.44 C 243.00,223.77 243.00,223.10 243.00,222.43 C 243.00,221.76 243.00,221.10 243.00,220.43 C 243.00,219.76 243.00,219.09 243.00,218.42 C 243.00,217.75 243.00,217.08 243.00,216.41 C 243.00,215.74 243.00,215.08 243.00,214.41 C 243.00,213.74 243.07,213.04 243.00,212.40 C 242.93,211.76 242.88,211.11 242.57,210.57 C 242.26,210.03 241.63,209.63 241.15,209.15 C 240.68,208.68 240.25,208.09 239.73,207.73 C 239.21,207.37 238.65,207.12 238.03,207.00 C 237.41,206.88 236.69,207.00 236.02,207.00 C 235.35,207.00 234.69,207.00 234.02,207.00 C 233.35,207.00 232.68,207.00 232.01,207.00 C 231.34,207.00 230.67,207.00 230.00,207.00 C 229.33,207.00 228.67,207.00 228.00,207.00 C 227.33,207.00 226.66,207.00 225.99,207.00 C 225.32,207.00 224.65,207.00 223.98,207.00 C 223.31,207.00 222.65,207.00 221.98,207.00 C 221.31,207.00 220.64,207.00 219.97,207.00 C 219.30,207.00 218.63,207.00 217.96,207.00 C 217.29,207.00 216.63,207.00 215.96,207.00 C 215.29,207.00 214.62,207.00 213.95,207.00 C 213.28,207.00 212.61,207.00 211.94,207.00 C 211.27,207.00 210.61,207.00 209.94,207.00 C 209.27,207.00 208.60,207.00 207.93,207.00 C 207.26,207.00 206.59,207.00 205.92,207.00 C 205.25,207.00 204.59,207.00 203.92,207.00 C 203.25,207.00 202.58,207.00 201.91,207.00 C 201.24,207.00 200.57,207.00 199.90,207.00 C 199.24,207.00 198.57,207.00 197.90,207.00 C 197.23,207.00 196.56,207.00 195.89,207.00 C 195.22,207.00 194.55,207.00 193.88,207.00 C 193.22,207.00 192.55,207.00 191.88,207.00 C 191.21,207.00 190.54,207.00 189.87,207.00 C 189.20,207.00 188.53,207.00 187.86,207.00 C 187.20,207.00 186.53,207.00 185.86,207.00 C 185.19,207.00 184.52,207.00 183.85,207.00 C 183.18,207.00 182.51,207.00 181.84,207.00 C 181.18,207.00 180.51,207.00 179.84,207.00 C 179.17,207.00 178.50,207.00 177.83,207.00 C 177.16,207.00 176.49,207.00 175.82,207.00 C 175.16,207.00 174.49,207.00 173.82,207.00 C 173.15,207.00 172.48,207.00 171.81,207.00 C 171.14,207.00 170.47,207.00 169.80,207.00 C 169.14,207.00 168.47,207.00 167.80,207.00 C 167.13,207.00 166.46,207.00 165.79,207.00 C 165.12,207.00 164.45,207.00 163.78,207.00 C 163.12,207.00 162.45,207.00 161.78,207.00 C 161.11,207.00 160.44,207.00 159.77,207.00 C 159.10,207.00 158.43,207.00 157.76,207.00 C 157.10,207.00 156.43,207.00 155.76,207.00 C 155.09,207.00 154.42,207.00 153.75,207.00 C 153.08,207.00 152.41,207.00 151.74,207.00 C 151.08,207.00 150.41,207.00 149.74,207.00 C 149.07,207.00 148.40,207.00 147.73,207.00 C 147.06,207.00 146.39,207.00 145.72,207.00 C 145.06,207.00 144.39,207.00 143.72,207.00 C 143.05,207.00 142.38,207.00 141.71,207.00 C 141.04,207.00 140.37,207.00 139.70,207.00 C 139.04,207.00 138.37,207.00 137.70,207.00 C 137.03,207.00 136.36,207.00 135.69,207.00 C 135.02,207.00 134.35,207.00 133.68,207.00 C 133.02,207.00 132.35,207.00 131.68,207.00 C 131.01,207.00 130.34,207.00 129.67,207.00 C 129.00,207.00 128.33,207.00 127.66,207.00 C 127.00,207.00 126.33,207.00 125.66,207.00 C 124.99,207.00 124.32,207.00 123.65,207.00 C 122.98,207.00 122.31,207.00 121.64,207.00 C 120.98,207.00 120.26,207.14 119.64,207.00 C 119.02,206.86 118.48,206.50 117.93,206.15 C 117.39,205.79 116.89,205.31 116.36,204.89 C 115.84,204.47 115.19,204.12 114.80,203.64 C 114.40,203.16 114.13,202.62 114.00,202.01 C 113.87,201.41 114.00,200.68 114.00,200.01 C 114.00,199.34 114.00,198.67 114.00,198.00 C 114.00,197.33 114.00,196.66 114.00,195.99 C 114.00,195.33 114.00,194.66 114.00,193.99 C 114.00,193.32 114.00,192.65 114.00,191.98 C 114.00,191.31 114.00,190.64 114.00,189.97 C 114.00,189.31 114.00,188.64 114.00,187.97 C 114.00,187.30 114.00,186.63 114.00,185.96 C 114.00,185.29 114.00,184.62 114.00,183.95 C 114.00,183.29 114.00,182.62 114.00,181.95 C 114.00,181.28 114.00,180.61 114.00,179.94 C 114.00,179.27 114.00,178.60 114.00,177.93 C 114.00,177.27 114.00,176.60 114.00,175.93 C 114.00,175.26 114.00,174.59 114.00,173.92 C 114.00,173.25 114.00,172.58 114.00,171.91 C 114.00,171.25 114.00,170.58 114.00,169.91 C 114.00,169.24 114.00,168.57 114.00,167.90 C 114.00,167.23 114.00,166.56 114.00,165.90 C 114.00,165.23 114.00,164.56 114.00,163.89 C 114.00,163.22 114.00,162.55 114.00,161.88 C 114.00,161.21 114.00,160.54 114.00,159.88 C 114.00,159.21 114.00,158.54 114.00,157.87 C 114.00,157.20 114.00,156.53 114.00,155.86 C 114.00,155.19 114.00,154.52 114.00,153.86 C 114.00,153.19 114.00,152.52 114.00,151.85 C 114.00,151.18 114.00,150.51 114.00,149.84 C 114.00,149.17 114.00,148.50 114.00,147.84 C 114.00,147.17 114.00,146.50 114.00,145.83 C 114.00,145.16 114.00,144.49 114.00,143.82 C 114.00,143.15 114.00,142.48 114.00,141.82 C 114.00,141.15 114.00,140.48 114.00,139.81 C 114.00,139.14 114.00,138.47 114.00,137.80 C 114.00,137.13 114.00,136.46 114.00,135.80 C 114.00,135.13 114.00,134.46 114.00,133.79 C 114.00,133.12 114.00,132.45 114.00,131.78 C 114.00,131.11 114.00,130.44 114.00,129.78 C 114.00,129.11 114.00,128.44 114.00,127.77 C 114.00,127.10 114.00,126.43 114.00,125.76 C 114.00,125.09 114.00,124.42 114.00,123.76 C 114.00,123.09 114.00,122.42 114.00,121.75 C 114.00,121.08 114.00,120.41 114.00,119.74 C 114.00,119.07 114.00,118.40 114.00,117.74 C 114.00,117.07 114.00,116.40 114.00,115.73 C 114.00,115.06 114.00,114.39 114.00,113.72 C 114.00,113.05 114.00,112.38 114.00,111.72 C 114.00,111.05 114.00,110.38 114.00,109.71 C 114.00,109.04 114.00,108.37 114.00,107.70 C 114.00,107.03 114.00,106.36 114.00,105.70 C 114.00,105.03 114.00,104.36 114.00,103.69 C 114.00,103.02 114.00,102.35 114.00,101.68 C 114.00,101.01 114.00,100.34 114.00,99.68 C 114.00,99.01 114.00,98.34 114.00,97.67 C 114.00,97.00 114.00,96.33 114.00,95.66 C 114.00,94.99 114.00,94.32 114.00,93.66 C 114.00,92.99 114.00,92.32 114.00,91.65 C 114.00,90.98 114.00,90.31 114.00,89.64 C 114.00,88.97 114.00,88.30 114.00,87.64 C 114.00,86.97 114.00,86.30 114.00,85.63 C 114.00,84.96 114.00,84.29 114.00,83.62 C 114.00,82.95 114.00,82.28 114.00,81.62 C 114.00,80.95 113.82,80.19 114.00,79.61 C 114.18,79.03 114.65,78.58 115.09,78.13 C 115.53,77.67 116.14,77.29 116.66,76.87 C 117.18,76.46 117.67,75.93 118.23,75.62 C 118.78,75.31 119.38,75.10 120.01,75.00 C 120.65,74.90 121.35,75.00 122.02,75.00 C 122.69,75.00 123.36,75.00 124.03,75.00 C 124.70,75.00 125.37,75.00 126.03,75.00 C 126.70,75.00 127.37,75.00 128.04,75.00 C 128.71,75.00 129.38,75.00 130.05,75.00 C 130.72,75.00 131.39,75.00 132.05,75.00 C 132.72,75.00 133.39,75.00 134.06,75.00 C 134.73,75.00 135.40,75.00 136.07,75.00 C 136.74,75.00 137.41,75.00 138.07,75.00 C 138.74,75.00 139.41,75.00 140.08,75.00 C 140.75,75.00 141.42,75.00 142.09,75.00 C 142.76,75.00 143.43,75.00 144.09,75.00 C 144.76,75.00 145.43,75.00 146.10,75.00 C 146.77,75.00 147.44,75.00 148.11,75.00 C 148.78,75.00 149.45,75.00 150.11,75.00 C 150.78,75.00 151.45,75.00 152.12,75.00 C 152.79,75.00 153.46,75.00 154.13,75.00 C 154.80,75.00 155.46,75.00 156.13,75.00 C 156.80,75.00 157.47,75.00 158.14,75.00 C 158.81,75.00 159.48,75.00 160.15,75.00 C 160.82,75.00 161.48,75.00 162.15,75.00 C 162.82,75.00 163.49,75.00 164.16,75.00 C 164.83,75.00 165.50,75.00 166.17,75.00 C 166.84,75.00 167.50,75.00 168.17,75.00 C 168.84,75.00 169.51,75.00 170.18,75.00 C 170.85,75.00 171.52,75.00 172.19,75.00 C 172.86,75.00 173.52,75.00 174.19,75.00 C 174.86,75.00 175.53,75.00 176.20,75.00 C 176.87,75.00 177.54,75.00 178.21,75.00 C 178.88,75.00 179.54,75.00 180.21,75.00 C 180.88,75.00 181.55,75.00 182.22,75.00 C 182.89,75.00 183.56,75.00 184.23,75.00 C 184.90,75.00 185.56,75.00 186.23,75.00 C 186.90,75.00 187.57,75.00 188.24,75.00 C 188.91,75.00 189.58,75.00 190.25,75.00 C 190.92,75.00 191.58,75.00 192.25,75.00 C 192.92,75.00 193.59,75.00 194.26,75.00 C 194.93,75.00 195.60,75.00 196.27,75.00 C 196.94,75.00 197.60,75.00 198.27,75.00 C 198.94,75.00 199.61,75.00 200.28,75.00 C 200.95,75.00 201.62,75.00 202.29,75.00 C 202.96,75.00 203.62,75.00 204.29,75.00 C 204.96,75.00 205.63,75.00 206.30,75.00 C 206.97,75.00 207.64,75.00 208.31,75.00 C 208.98,75.00 209.64,75.00 210.31,75.00 C 210.98,75.00 211.65,75.00 212.32,75.00 C 212.99,75.00 213.66,75.00 214.33,75.00 C 215.00,75.00 215.66,75.00 216.33,75.00 C 217.00,75.00 217.67,75.00 218.34,75.00 C 219.01,75.00 219.68,75.00 220.35,75.00 C 221.02,75.00 221.68,75.00 222.35,75.00 C 223.02,75.00 223.69,75.00 224.36,75.00 C 225.03,75.00 225.70,75.00 226.37,75.00 C 227.04,75.00 227.70,75.00 228.37,75.00 C 229.04,75.00 229.71,75.00 230.38,75.00 C 231.05,75.00 231.72,75.00 232.39,75.00 C 233.06,75.00 233.72,75.00 234.39,75.00 C 235.06,75.00 235.73,75.00 236.40,75.00 C 237.07,75.00 237.74,75.00 238.41,75.00 C 239.08,75.00 239.74,75.00 240.41,75.00 C 241.08,75.00 241.75,75.00 242.42,75.00 C 243.09,75.00 243.76,75.00 244.43,75.00 C 245.10,75.00 245.76,75.00 246.43,75.00 C 247.10,75.00 247.77,75.00 248.44,75.00 C 249.11,75.00 249.78,75.00 250.45,75.00 C 251.12,75.00 251.78,75.00 252.45,75.00 C 253.12,75.00 253.79,75.00 254.46,75.00 C 255.13,75.00 255.80,75.00 256.47,75.00 C 257.14,75.00 257.80,75.00 258.47,75.00 C 259.14,75.00 259.81,75.00 260.48,75.00 C 261.15,75.00 261.82,75.00 262.49,75.00 C 263.15,75.00 263.82,75.00 264.49,75.00 C 265.16,75.00 265.83,75.00 266.50,75.00 C 267.17,75.00 267.84,75.00 268.51,75.00 C 269.17,75.00 269.84,75.00 270.51,75.00 C 271.18,75.00 271.85,75.00 272.52,75.00 C 273.19,75.00 273.86,75.00 274.53,75.00 C 275.19,75.00 275.86,75.00 276.53,75.00 C 277.20,75.00 277.87,75.00 278.54,75.00 C 279.21,75.00 279.88,75.00 280.55,75.00 C 281.21,75.00 281.88,75.00 282.55,75.00 C 283.22,75.00 283.89,75.00 284.56,75.00 C 285.23,75.00 285.90,75.00 286.57,75.00 C 287.23,75.00 287.90,75.00 288.57,75.00 C 289.24,75.00 289.91,75.00 290.58,75.00 C 291.25,75.00 291.92,75.00 292.59,75.00 C 293.25,75.00 293.92,75.00 294.59,75.00 C 295.26,75.00 295.93,75.00 296.60,75.00 C 297.27,75.00 297.94,75.00 298.61,75.00 C 299.27,75.00 299.94,75.00 300.61,75.00 C 301.28,75.00 301.95,75.00 302.62,75.00 C 303.29,75.00 303.96,75.00 304.63,75.00 C 305.29,75.00 305.96,75.00 306.63,75.00 C 307.30,75.00 307.97,75.00 308.64,75.00 C 309.31,75.00 309.98,75.00 310.65,75.00 C 311.31,75.00 311.98,75.00 312.65,75.00 C 313.32,75.00 313.99,75.00 314.66,75.00 C 315.33,75.00 316.00,75.00 316.67,75.00 C 317.33,75.00 318.00,75.00 318.67,75.00 C 319.34,75.00 320.01,75.00 320.68,75.00 C 321.35,75.00 322.02,75.00 322.69,75.00 C 323.35,75.00 324.02,75.00 324.69,75.00 C 325.36,75.00 326.03,75.00 326.70,75.00 C 327.37,75.00 328.31,75.29 328.71,75.00 C 329.10,74.71 329.00,73.91 329.08,73.29 C 329.15,72.67 329.14,71.95 329.17,71.29 C 329.20,70.62 329.23,69.95 329.26,69.28 C 329.29,68.61 329.32,67.94 329.35,67.28 C 329.38,66.61 329.41,65.94 329.44,65.27 C 329.47,64.60 329.50,63.94 329.53,63.27 C 329.56,62.60 329.59,61.93 329.62,61.26 C 329.65,60.59 329.69,59.93 329.72,59.26 C 329.75,58.59 329.78,57.92 329.81,57.25 C 329.84,56.58 329.87,55.92 329.90,55.25 C 329.93,54.58 329.96,53.91 329.99,53.24 C 330.02,52.58 330.05,51.91 330.08,51.24 C 330.11,50.57 330.14,49.90 330.17,49.23 C 330.20,48.57 330.23,47.90 330.26,47.23 C 330.29,46.56 330.32,45.89 330.35,45.23 C 330.38,44.56 330.41,43.89 330.44,43.22 C 330.47,42.55 330.51,41.88 330.54,41.22 C 330.57,40.55 330.60,39.88 330.63,39.21 C 330.66,38.54 330.69,37.88 330.72,37.21 C 330.75,36.54 330.78,35.87 330.81,35.20 C 330.84,34.53 330.87,33.87 330.90,33.20 C 330.93,32.53 331.19,31.77 330.99,31.19 C 330.79,30.61 330.17,30.20 329.72,29.72 C 329.27,29.24 328.78,28.75 328.30,28.30 C 327.82,27.85 327.41,27.22 326.83,27.00 C 326.25,26.78 325.49,27.00 324.82,27.00 C 324.16,27.00 323.49,27.00 322.82,27.00 C 322.15,27.00 321.48,27.00 320.81,27.00 C 320.14,27.00 319.47,27.00 318.80,27.00 C 318.14,27.00 317.47,27.00 316.80,27.00 C 316.13,27.00 315.46,27.00 314.79,27.00 C 314.12,27.00 313.45,27.00 312.78,27.00 C 312.12,27.00 311.45,27.00 310.78,27.00 C 310.11,27.00 309.44,27.00 308.77,27.00 C 308.10,27.00 307.43,27.00 306.76,27.00 C 306.10,27.00 305.43,27.00 304.76,27.00 C 304.09,27.00 303.42,27.00 302.75,27.00 C 302.08,27.00 301.41,27.00 300.74,27.00 C 300.08,27.00 299.41,27.00 298.74,27.00 C 298.07,27.00 297.40,27.00 296.73,27.00 C 296.06,27.00 295.39,27.00 294.72,27.00 C 294.06,27.00 293.39,27.00 292.72,27.00 C 292.05,27.00 291.38,27.00 290.71,27.00 C 290.04,27.00 289.37,27.00 288.70,27.00 C 288.04,27.00 287.37,27.00 286.70,27.00 C 286.03,27.00 285.36,27.00 284.69,27.00 C 284.02,27.00 283.35,27.00 282.68,27.00 C 282.02,27.00 281.35,27.00 280.68,27.00 C 280.01,27.00 279.34,27.00 278.67,27.00 C 278.00,27.00 277.33,27.00 276.66,27.00 C 276.00,27.00 275.33,27.00 274.66,27.00 C 273.99,27.00 273.32,27.00 272.65,27.00 C 271.98,27.00 271.31,27.00 270.64,27.00 C 269.98,27.00 269.31,27.00 268.64,27.00 C 267.97,27.00 267.30,27.00 266.63,27.00 C 265.96,27.00 265.29,27.00 264.62,27.00 C 263.96,27.00 263.29,27.00 262.62,27.00 C 261.95,27.00 261.28,27.00 260.61,27.00 C 259.94,27.00 259.27,27.00 258.60,27.00 C 257.94,27.00 257.27,27.00 256.60,27.00 C 255.93,27.00 255.26,27.00 254.59,27.00 C 253.92,27.00 253.25,27.00 252.58,27.00 C 251.92,27.00 251.25,27.00 250.58,27.00 C 249.91,27.00 249.24,27.00 248.57,27.00 C 247.90,27.00 247.23,27.00 246.56,27.00 C 245.90,27.00 245.23,27.00 244.56,27.00 C 243.89,27.00 243.22,27.00 242.55,27.00 C 241.88,27.00 241.21,27.00 240.54,27.00 C 239.88,27.00 239.21,27.00 238.54,27.00 C 237.87,27.00 237.20,27.00 236.53,27.00 C 235.86,27.00 235.19,27.00 234.53,27.00 C 233.86,27.00 233.19,27.00 232.52,27.00 C 231.85,27.00 231.18,27.00 230.51,27.00 C 229.84,27.00 229.17,27.00 228.51,27.00 C 227.84,27.00 227.17,27.00 226.50,27.00 C 225.83,27.00 225.16,27.00 224.49,27.00 C 223.82,27.00 223.15,27.00 222.49,27.00 C 221.82,27.00 221.15,27.00 220.48,27.00 C 219.81,27.00 219.14,27.00 218.47,27.00 C 217.80,27.00 217.13,27.00 216.47,27.00 C 215.80,27.00 215.13,27.00 214.46,27.00 C 213.79,27.00 213.12,27.00 212.45,27.00 C 211.78,27.00 211.11,27.00 210.45,27.00 C 209.78,27.00 209.11,27.00 208.44,27.00 C 207.77,27.00 207.10,27.00 206.43,27.00 C 205.76,27.00 205.09,27.00 204.43,27.00 C 203.76,27.00 203.09,27.00 202.42,27.00 C 201.75,27.00 201.08,27.00 200.41,27.00 C 199.74,27.00 199.07,27.00 198.41,27.00 C 197.74,27.00 197.07,27.00 196.40,27.00 C 195.73,27.00 195.06,27.00 194.39,27.00 C 193.72,27.00 193.05,27.00 192.39,27.00 C 191.72,27.00 191.05,27.00 190.38,27.00 C 189.71,27.00 189.04,27.00 188.37,27.00 C 187.70,27.00 187.03,27.00 186.37,27.00 C 185.70,27.00 185.03,27.00 184.36,27.00 C 183.69,27.00 183.02,27.00 182.35,27.00 C 181.68,27.00 181.01,27.00 180.35,27.00 C 179.68,27.00 179.01,27.00 178.34,27.00 C 177.67,27.00 177.00,27.00 176.33,27.00 C 175.66,27.00 174.99,27.00 174.33,27.00 C 173.66,27.00 172.99,27.00 172.32,27.00 C 171.65,27.00 170.98,27.00 170.31,27.00 C 169.64,27.00 168.97,27.00 168.31,27.00 C 167.64,27.00 166.97,27.00 166.30,27.00 C 165.63,27.00 164.96,27.00 164.29,27.00 C 163.62,27.00 162.95,27.00 162.29,27.00 C 161.62,27.00 160.95,27.00 160.28,27.00 C 159.61,27.00 158.94,27.00 158.27,27.00 C 157.60,27.00 156.93,27.00 156.27,27.00 C 155.60,27.00 154.93,27.00 154.26,27.00 C 153.59,27.00 152.92,27.00 152.25,27.00 C 151.58,27.00 150.91,27.00 150.25,27.00 C 149.58,27.00 148.91,27.00 148.24,27.00 C 147.57,27.00 146.90,27.00 146.23,27.00 C 145.56,27.00 144.89,27.00 144.23,27.00 C 143.56,27.00 142.89,27.00 142.22,27.00 C 141.55,27.00 140.88,27.00 140.21,27.00 C 139.54,27.00 138.87,27.00 138.21,27.00 C 137.54,27.00 136.87,27.00 136.20,27.00 C 135.53,27.00 134.86,27.00 134.19,27.00 C 133.52,27.00 132.85,27.00 132.19,27.00 C 131.52,27.00 130.85,27.00 130.18,27.00 C 129.51,27.00 128.84,27.00 128.17,27.00 C 127.50,27.00 126.84,27.00 126.17,27.00 C 125.50,27.00 124.83,27.00 124.16,27.00 C 123.49,27.00 122.82,27.00 122.15,27.00 C 121.48,27.00 120.82,27.00 120.15,27.00 C 119.48,27.00 118.81,27.00 118.14,27.00 C 117.47,27.00 116.80,27.00 116.13,27.00 C 115.46,27.00 114.80,27.00 114.13,27.00 C 113.46,27.00 112.79,27.00 112.12,27.00 C 111.45,27.00 110.78,27.00 110.11,27.00 C 109.44,27.00 108.78,27.00 108.11,27.00 C 107.44,27.00 106.77,27.00 106.10,27.00 C 105.43,27.00 104.76,27.00 104.09,27.00 C 103.42,27.00 102.76,27.00 102.09,27.00 C 101.42,27.00 100.75,27.00 100.08,27.00 C 99.41,27.00 98.74,27.00 98.07,27.00 C 97.40,27.00 96.74,27.00 96.07,27.00 C 95.40,27.00 94.73,27.00 94.06,27.00 C 93.39,27.00 92.72,27.00 92.05,27.00 C 91.38,27.00 90.72,27.00 90.05,27.00 C 89.38,27.00 88.71,27.00 88.04,27.00 C 87.37,27.00 86.70,27.00 86.03,27.00 C 85.36,27.00 84.70,27.00 84.03,27.00 C 83.36,27.00 82.69,27.00 82.02,27.00 C 81.35,27.00 80.68,27.00 80.01,27.00 C 79.34,27.00 78.68,27.00 78.01,27.00 C 77.34,27.00 77.33,26.50 76.00,27.00 C 74.67,27.50 71.00,29.17 70.00,30.00 Z M 164.00,118.00 C 136.10,117.90 163.05,118.95 162.58,119.42 C 162.11,119.89 161.59,120.35 161.16,120.84 C 160.73,121.33 160.19,121.77 160.00,122.36 C 159.81,122.95 160.00,123.70 160.00,124.36 C 160.00,125.03 160.00,125.70 160.00,126.37 C 160.00,127.04 160.00,127.71 160.00,128.38 C 160.00,129.04 160.00,129.71 160.00,130.38 C 160.00,131.05 160.00,131.72 160.00,132.39 C 160.00,133.05 160.00,133.72 160.00,134.39 C 160.00,135.06 160.00,135.73 160.00,136.40 C 160.00,137.06 160.00,137.73 160.00,138.40 C 160.00,139.07 160.00,139.74 160.00,140.41 C 160.00,141.08 160.00,141.74 160.00,142.41 C 160.00,143.08 160.00,143.75 160.00,144.42 C 160.00,145.09 160.00,145.75 160.00,146.42 C 160.00,147.09 160.00,147.76 160.00,148.43 C 160.00,149.10 160.00,149.77 160.00,150.43 C 160.00,151.10 160.00,151.77 160.00,152.44 C 160.00,153.11 160.00,153.78 160.00,154.44 C 160.00,155.11 160.00,155.78 160.00,156.45 C 160.00,157.12 159.95,157.81 160.00,158.45 C 160.05,159.10 160.03,159.78 160.33,160.33 C 160.62,160.87 161.26,161.30 161.74,161.74 C 162.23,162.19 162.65,162.79 163.23,163.00 C 163.81,163.21 164.56,163.01 165.23,163.02 C 165.90,163.02 166.57,163.03 167.24,163.04 C 167.91,163.04 168.58,163.05 169.24,163.05 C 169.91,163.06 170.58,163.06 171.25,163.07 C 171.92,163.08 172.59,163.08 173.25,163.09 C 173.92,163.09 174.59,163.10 175.26,163.10 C 175.93,163.11 176.60,163.12 177.26,163.12 C 177.93,163.13 178.60,163.13 179.27,163.14 C 179.94,163.14 180.61,163.15 181.28,163.15 C 181.94,163.16 182.61,163.17 183.28,163.17 C 183.95,163.18 184.62,163.18 185.29,163.19 C 185.95,163.19 186.62,163.20 187.29,163.21 C 187.96,163.21 188.63,163.22 189.30,163.22 C 189.96,163.23 190.63,163.23 191.30,163.24 C 191.97,163.25 192.64,163.25 193.31,163.26 C 193.98,163.26 194.64,163.27 195.31,163.27 C 195.98,163.28 196.65,163.29 197.32,163.29 C 197.99,163.30 198.65,163.30 199.32,163.31 C 199.99,163.31 200.66,163.32 201.33,163.32 C 202.00,163.33 202.66,163.34 203.33,163.34 C 204.00,163.35 204.67,163.35 205.34,163.36 C 206.01,163.36 206.67,163.37 207.34,163.38 C 208.01,163.38 208.68,163.39 209.35,163.39 C 210.02,163.40 210.69,163.40 211.35,163.41 C 212.02,163.42 212.69,163.42 213.36,163.43 C 214.03,163.43 214.70,163.44 215.36,163.44 C 216.03,163.45 216.70,163.46 217.37,163.46 C 218.04,163.47 218.71,163.47 219.37,163.48 C 220.04,163.48 220.71,163.49 221.38,163.49 C 222.05,163.50 222.72,163.51 223.39,163.51 C 224.05,163.52 224.72,163.52 225.39,163.53 C 226.06,163.53 226.73,163.54 227.40,163.55 C 228.06,163.55 228.73,163.56 229.40,163.56 C 230.07,163.57 230.74,163.57 231.41,163.58 C 232.07,163.59 232.74,163.59 233.41,163.60 C 234.08,163.60 234.75,163.61 235.42,163.61 C 236.09,163.62 236.75,163.63 237.42,163.63 C 238.09,163.64 238.76,163.64 239.43,163.65 C 240.10,163.65 240.76,163.66 241.43,163.66 C 242.10,163.67 242.77,163.68 243.44,163.68 C 244.11,163.69 244.77,163.69 245.44,163.70 C 246.11,163.70 246.78,163.71 247.45,163.72 C 248.12,163.72 248.78,163.73 249.45,163.73 C 250.12,163.74 250.79,163.74 251.46,163.75 C 252.13,163.76 252.80,163.76 253.46,163.77 C 254.13,163.77 254.80,163.78 255.47,163.78 C 256.14,163.79 256.81,163.79 257.47,163.80 C 258.14,163.81 258.81,163.81 259.48,163.82 C 260.15,163.82 260.82,163.83 261.48,163.83 C 262.15,163.84 262.82,163.85 263.49,163.85 C 264.16,163.86 264.83,163.86 265.50,163.87 C 266.16,163.87 266.83,163.88 267.50,163.89 C 268.17,163.89 268.84,163.90 269.51,163.90 C 270.17,163.91 270.84,163.91 271.51,163.92 C 272.18,163.93 272.85,163.93 273.52,163.94 C 274.18,163.94 274.85,163.95 275.52,163.95 C 276.19,163.96 276.86,163.96 277.53,163.97 C 278.20,163.98 278.88,163.93 279.53,163.99 C 280.18,164.05 280.84,164.07 281.42,164.34 C 282.00,164.60 282.46,165.17 282.99,165.59 C 283.51,166.01 284.05,166.41 284.55,166.84 C 285.05,167.27 285.76,167.60 286.00,168.15 C 286.24,168.70 286.00,169.49 286.00,170.16 C 286.00,170.82 286.00,171.49 286.00,172.16 C 286.00,172.83 286.00,173.50 286.00,174.17 C 286.00,174.83 286.00,175.50 286.00,176.17 C 286.00,176.84 286.00,177.51 286.00,178.18 C 286.00,178.85 286.00,179.51 286.00,180.18 C 286.00,180.85 286.00,181.52 286.00,182.19 C 286.00,182.86 286.00,183.52 286.00,184.19 C 286.00,184.86 286.00,185.53 286.00,186.20 C 286.00,186.87 286.00,187.53 286.00,188.20 C 286.00,188.87 286.00,189.54 286.00,190.21 C 286.00,190.88 286.00,191.55 286.00,192.21 C 286.00,192.88 286.00,193.55 286.00,194.22 C 286.00,194.89 286.00,195.56 286.00,196.22 C 286.00,196.89 286.00,197.56 286.00,198.23 C 286.00,198.90 286.00,199.57 286.00,200.24 C 286.00,200.90 286.00,201.57 286.00,202.24 C 286.00,202.91 286.00,203.58 286.00,204.25 C 286.00,204.91 286.00,205.58 286.00,206.25 C 286.00,206.92 286.00,207.59 286.00,208.26 C 286.00,208.92 286.00,209.59 286.00,210.26 C 286.00,210.93 286.00,211.60 286.00,212.27 C 286.00,212.94 286.00,213.60 286.00,214.27 C 286.00,214.94 286.00,215.61 286.00,216.28 C 286.00,216.95 286.00,217.61 286.00,218.28 C 286.00,218.95 286.00,219.62 286.00,220.29 C 286.00,220.96 286.00,221.63 286.00,222.29 C 286.00,222.96 286.00,223.63 286.00,224.30 C 286.00,224.97 286.00,225.64 286.00,226.30 C 286.00,226.97 286.00,227.64 286.00,228.31 C 286.00,228.98 286.00,229.65 286.00,230.31 C 286.00,230.98 286.00,231.65 286.00,232.32 C 286.00,232.99 286.00,233.66 286.00,234.33 C 286.00,234.99 286.00,235.66 286.00,236.33 C 286.00,237.00 286.00,237.67 286.00,238.34 C 286.00,239.00 286.00,239.67 286.00,240.34 C 286.00,241.01 286.00,241.68 286.00,242.35 C 286.00,243.02 286.00,243.68 286.00,244.35 C 286.00,245.02 286.00,245.69 286.00,246.36 C 286.00,247.03 286.00,247.69 286.00,248.36 C 286.00,249.03 286.00,249.70 286.00,250.37 C 286.00,251.04 286.00,251.70 286.00,252.37 C 286.00,253.04 286.00,253.71 286.00,254.38 C 286.00,255.05 286.00,255.72 286.00,256.38 C 286.00,257.05 286.00,257.72 286.00,258.39 C 286.00,259.06 286.00,259.73 286.00,260.39 C 286.00,261.06 286.00,261.73 286.00,262.40 C 286.00,263.07 286.00,263.74 286.00,264.41 C 286.00,265.07 286.00,265.74 286.00,266.41 C 286.00,267.08 286.00,267.75 286.00,268.42 C 286.00,269.08 286.00,269.75 286.00,270.42 C 286.00,271.09 286.00,271.76 286.00,272.43 C 286.00,273.09 286.00,273.76 286.00,274.43 C 286.00,275.10 286.00,275.77 286.00,276.44 C 286.00,277.11 286.00,277.77 286.00,278.44 C 286.00,279.11 286.00,279.78 286.00,280.45 C 286.00,281.12 286.00,281.78 286.00,282.45 C 286.00,283.12 286.00,283.79 286.00,284.46 C 286.00,285.13 286.00,285.80 286.00,286.46 C 286.00,287.13 286.00,287.80 286.00,288.47 C 286.00,289.14 286.19,289.90 286.00,290.47 C 285.81,291.05 285.30,291.47 284.84,291.92 C 284.39,292.37 283.80,292.76 283.28,293.18 C 282.76,293.59 282.27,294.13 281.71,294.43 C 281.15,294.73 280.54,294.90 279.91,295.00 C 279.27,295.10 278.57,295.00 277.90,295.00 C 277.23,295.00 276.57,295.00 275.90,295.00 C 275.23,295.00 274.56,295.00 273.89,295.00 C 273.22,295.00 272.55,295.00 271.89,295.00 C 271.22,295.00 270.55,295.00 269.88,295.00 C 269.21,295.00 268.54,295.00 267.88,295.00 C 267.21,295.00 266.54,295.00 265.87,295.00 C 265.20,295.00 264.53,295.00 263.87,295.00 C 263.20,295.00 262.53,295.00 261.86,295.00 C 261.19,295.00 260.52,295.00 259.85,295.00 C 259.19,295.00 258.52,295.00 257.85,295.00 C 257.18,295.00 256.51,295.00 255.84,295.00 C 255.18,295.00 254.51,295.00 253.84,295.00 C 253.17,295.00 252.50,295.00 251.83,295.00 C 251.16,295.00 250.50,295.00 249.83,295.00 C 249.16,295.00 248.49,295.00 247.82,295.00 C 247.15,295.00 246.49,295.00 245.82,295.00 C 245.15,295.00 244.48,295.00 243.81,295.00 C 243.14,295.00 242.48,295.00 241.81,295.00 C 241.14,295.00 240.47,295.00 239.80,295.00 C 239.13,295.00 238.46,295.00 237.80,295.00 C 237.13,295.00 236.46,295.00 235.79,295.00 C 235.12,295.00 234.45,295.00 233.79,295.00 C 233.12,295.00 232.45,295.00 231.78,295.00 C 231.11,295.00 230.44,295.00 229.77,295.00 C 229.11,295.00 228.44,295.00 227.77,295.00 C 227.10,295.00 226.43,295.00 225.76,295.00 C 225.10,295.00 224.43,295.00 223.76,295.00 C 223.09,295.00 222.42,295.00 221.75,295.00 C 221.09,295.00 220.42,295.00 219.75,295.00 C 219.08,295.00 218.41,295.00 217.74,295.00 C 217.07,295.00 216.41,295.00 215.74,295.00 C 215.07,295.00 214.40,295.00 213.73,295.00 C 213.06,295.00 212.40,295.00 211.73,295.00 C 211.06,295.00 210.39,295.00 209.72,295.00 C 209.05,295.00 208.38,295.00 207.72,295.00 C 207.05,295.00 206.38,295.00 205.71,295.00 C 205.04,295.00 204.37,295.00 203.71,295.00 C 203.04,295.00 202.37,295.00 201.70,295.00 C 201.03,295.00 200.36,295.00 199.70,295.00 C 199.03,295.00 198.36,295.00 197.69,295.00 C 197.02,295.00 196.35,295.00 195.68,295.00 C 195.02,295.00 194.35,295.00 193.68,295.00 C 193.01,295.00 192.34,295.00 191.67,295.00 C 191.01,295.00 190.34,295.00 189.67,295.00 C 189.00,295.00 188.33,295.00 187.66,295.00 C 186.99,295.00 186.33,295.00 185.66,295.00 C 184.99,295.00 184.32,295.00 183.65,295.00 C 182.98,295.00 182.32,295.00 181.65,295.00 C 180.98,295.00 180.31,295.00 179.64,295.00 C 178.97,295.00 178.31,295.00 177.64,295.00 C 176.97,295.00 176.30,295.00 175.63,295.00 C 174.96,295.00 174.29,295.00 173.63,295.00 C 172.96,295.00 172.29,295.00 171.62,295.00 C 170.95,295.00 170.28,295.00 169.62,295.00 C 168.95,295.00 168.28,295.00 167.61,295.00 C 166.94,295.00 166.27,295.00 165.60,295.00 C 164.94,295.00 164.27,295.00 163.60,295.00 C 162.93,295.00 162.26,295.00 161.59,295.00 C 160.93,295.00 160.26,295.00 159.59,295.00 C 158.92,295.00 158.25,295.00 157.58,295.00 C 156.92,295.00 156.25,295.00 155.58,295.00 C 154.91,295.00 154.24,295.00 153.57,295.00 C 152.90,295.00 152.24,295.00 151.57,295.00 C 150.90,295.00 150.23,295.00 149.56,295.00 C 148.89,295.00 148.23,295.00 147.56,295.00 C 146.89,295.00 146.22,295.00 145.55,295.00 C 144.88,295.00 144.21,295.00 143.55,295.00 C 142.88,295.00 142.21,295.00 141.54,295.00 C 140.87,295.00 140.20,295.00 139.54,295.00 C 138.87,295.00 138.20,295.00 137.53,295.00 C 136.86,295.00 136.19,295.00 135.53,295.00 C 134.86,295.00 134.19,295.00 133.52,295.00 C 132.85,295.00 132.18,295.00 131.51,295.00 C 130.85,295.00 130.18,295.00 129.51,295.00 C 128.84,295.00 128.17,295.00 127.50,295.00 C 126.84,295.00 126.17,295.00 125.50,295.00 C 124.83,295.00 124.16,295.00 123.49,295.00 C 122.82,295.00 122.16,295.00 121.49,295.00 C 120.82,295.00 120.15,295.00 119.48,295.00 C 118.81,295.00 118.15,295.00 117.48,295.00 C 116.81,295.00 116.14,295.00 115.47,295.00 C 114.80,295.00 114.14,295.00 113.47,295.00 C 112.80,295.00 112.13,295.00 111.46,295.00 C 110.79,295.00 110.12,295.00 109.46,295.00 C 108.79,295.00 108.12,295.00 107.45,295.00 C 106.78,295.00 106.11,295.00 105.45,295.00 C 104.78,295.00 104.11,295.00 103.44,295.00 C 102.77,295.00 102.10,295.00 101.43,295.00 C 100.77,295.00 100.10,295.00 99.43,295.00 C 98.76,295.00 98.09,295.00 97.42,295.00 C 96.76,295.00 96.09,295.00 95.42,295.00 C 94.75,295.00 94.08,295.00 93.41,295.00 C 92.75,295.00 92.08,295.00 91.41,295.00 C 90.74,295.00 90.07,295.00 89.40,295.00 C 88.73,295.00 88.07,295.00 87.40,295.00 C 86.73,295.00 86.06,295.00 85.39,295.00 C 84.72,295.00 84.06,295.00 83.39,295.00 C 82.72,295.00 82.05,295.00 81.38,295.00 C 80.71,295.00 80.04,295.00 79.38,295.00 C 78.71,295.00 78.04,295.00 77.37,295.00 C 76.70,295.00 76.03,295.00 75.37,295.00 C 74.70,295.00 73.93,294.79 73.36,295.00 C 72.79,295.21 72.41,295.81 71.97,296.28 C 71.53,296.76 71.14,297.33 70.72,297.85 C 70.30,298.37 69.75,298.85 69.47,299.42 C 69.19,299.98 69.10,300.62 69.03,301.26 C 68.97,301.90 69.07,302.59 69.09,303.26 C 69.10,303.93 69.12,304.60 69.14,305.27 C 69.16,305.93 69.17,306.60 69.19,307.27 C 69.21,307.94 69.23,308.61 69.24,309.28 C 69.26,309.94 69.28,310.61 69.30,311.28 C 69.31,311.95 69.33,312.62 69.35,313.28 C 69.37,313.95 69.38,314.62 69.40,315.29 C 69.42,315.96 69.44,316.63 69.46,317.29 C 69.47,317.96 69.49,318.63 69.51,319.30 C 69.53,319.97 69.54,320.64 69.56,321.30 C 69.58,321.97 69.60,322.64 69.61,323.31 C 69.63,323.98 69.65,324.64 69.67,325.31 C 69.68,325.98 69.70,326.65 69.72,327.32 C 69.74,327.99 69.75,328.65 69.77,329.32 C 69.79,329.99 69.81,330.66 69.82,331.33 C 69.84,331.99 69.86,332.66 69.88,333.33 C 69.89,334.00 69.91,334.67 69.93,335.34 C 69.95,336.00 69.78,336.78 69.98,337.34 C 70.19,337.90 70.67,338.29 71.15,338.69 C 71.64,339.09 72.30,339.38 72.87,339.72 C 73.45,340.07 73.98,340.54 74.59,340.76 C 75.20,340.97 75.87,340.96 76.53,341.00 C 77.19,341.04 77.87,341.00 78.54,341.00 C 79.20,341.00 79.87,341.00 80.54,341.00 C 81.21,341.00 81.88,341.00 82.55,341.00 C 83.21,341.00 83.88,341.00 84.55,341.00 C 85.22,341.00 85.89,341.00 86.56,341.00 C 87.23,341.00 87.89,341.00 88.56,341.00 C 89.23,341.00 89.90,341.00 90.57,341.00 C 91.24,341.00 91.90,341.00 92.57,341.00 C 93.24,341.00 93.91,341.00 94.58,341.00 C 95.25,341.00 95.92,341.00 96.58,341.00 C 97.25,341.00 97.92,341.00 98.59,341.00 C 99.26,341.00 99.93,341.00 100.59,341.00 C 101.26,341.00 101.93,341.00 102.60,341.00 C 103.27,341.00 103.94,341.00 104.60,341.00 C 105.27,341.00 105.94,341.00 106.61,341.00 C 107.28,341.00 107.95,341.00 108.62,341.00 C 109.28,341.00 109.95,341.00 110.62,341.00 C 111.29,341.00 111.96,341.00 112.63,341.00 C 113.29,341.00 113.96,341.00 114.63,341.00 C 115.30,341.00 115.97,341.00 116.64,341.00 C 117.31,341.00 117.97,341.00 118.64,341.00 C 119.31,341.00 119.98,341.00 120.65,341.00 C 121.32,341.00 121.98,341.00 122.65,341.00 C 123.32,341.00 123.99,341.00 124.66,341.00 C 125.33,341.00 125.99,341.00 126.66,341.00 C 127.33,341.00 128.00,341.00 128.67,341.00 C 129.34,341.00 130.01,341.00 130.67,341.00 C 131.34,341.00 132.01,341.00 132.68,341.00 C 133.35,341.00 134.02,341.00 134.68,341.00 C 135.35,341.00 136.02,341.00 136.69,341.00 C 137.36,341.00 138.03,341.00 138.70,341.00 C 139.36,341.00 140.03,341.00 140.70,341.00 C 141.37,341.00 142.04,341.00 142.71,341.00 C 143.37,341.00 144.04,341.00 144.71,341.00 C 145.38,341.00 146.05,341.00 146.72,341.00 C 147.38,341.00 148.05,341.00 148.72,341.00 C 149.39,341.00 150.06,341.00 150.73,341.00 C 151.40,341.00 152.06,341.00 152.73,341.00 C 153.40,341.00 154.07,341.00 154.74,341.00 C 155.41,341.00 156.07,341.00 156.74,341.00 C 157.41,341.00 158.08,341.00 158.75,341.00 C 159.42,341.00 160.09,341.00 160.75,341.00 C 161.42,341.00 162.09,341.00 162.76,341.00 C 163.43,341.00 164.10,341.00 164.76,341.00 C 165.43,341.00 166.10,341.00 166.77,341.00 C 167.44,341.00 168.11,341.00 168.77,341.00 C 169.44,341.00 170.11,341.00 170.78,341.00 C 171.45,341.00 172.12,341.00 172.79,341.00 C 173.45,341.00 174.12,341.00 174.79,341.00 C 175.46,341.00 176.13,341.00 176.80,341.00 C 177.46,341.00 178.13,341.00 178.80,341.00 C 179.47,341.00 180.14,341.00 180.81,341.00 C 181.48,341.00 182.14,341.00 182.81,341.00 C 183.48,341.00 184.15,341.00 184.82,341.00 C 185.49,341.00 186.15,341.00 186.82,341.00 C 187.49,341.00 188.16,341.00 188.83,341.00 C 189.50,341.00 190.16,341.00 190.83,341.00 C 191.50,341.00 192.17,341.00 192.84,341.00 C 193.51,341.00 194.18,341.00 194.84,341.00 C 195.51,341.00 196.18,341.00 196.85,341.00 C 197.52,341.00 198.19,341.00 198.85,341.00 C 199.52,341.00 200.19,341.00 200.86,341.00 C 201.53,341.00 202.20,341.00 202.87,341.00 C 203.53,341.00 204.20,341.00 204.87,341.00 C 205.54,341.00 206.21,341.00 206.88,341.00 C 207.54,341.00 208.21,341.00 208.88,341.00 C 209.55,341.00 210.22,341.00 210.89,341.00 C 211.55,341.00 212.22,341.00 212.89,341.00 C 213.56,341.00 214.23,341.00 214.90,341.00 C 215.57,341.00 216.23,341.00 216.90,341.00 C 217.57,341.00 218.24,341.00 218.91,341.00 C 219.58,341.00 220.24,341.00 220.91,341.00 C 221.58,341.00 222.25,341.00 222.92,341.00 C 223.59,341.00 224.26,341.00 224.92,341.00 C 225.59,341.00 226.26,341.00 226.93,341.00 C 227.60,341.00 228.27,341.00 228.93,341.00 C 229.60,341.00 230.27,341.00 230.94,341.00 C 231.61,341.00 232.28,341.00 232.94,341.00 C 233.61,341.00 234.28,341.00 234.95,341.00 C 235.62,341.00 236.29,341.00 236.96,341.00 C 237.62,341.00 238.29,341.00 238.96,341.00 C 239.63,341.00 240.30,341.00 240.97,341.00 C 241.63,341.00 242.30,341.00 242.97,341.00 C 243.64,341.00 244.31,341.00 244.98,341.00 C 245.65,341.00 246.31,341.00 246.98,341.00 C 247.65,341.00 248.32,341.00 248.99,341.00 C 249.66,341.00 250.32,341.00 250.99,341.00 C 251.66,341.00 252.33,341.00 253.00,341.00 C 253.67,341.00 254.33,341.00 255.00,341.00 C 255.67,341.00 256.34,341.00 257.01,341.00 C 257.68,341.00 258.35,341.00 259.01,341.00 C 259.68,341.00 260.35,341.00 261.02,341.00 C 261.69,341.00 262.36,341.00 263.02,341.00 C 263.69,341.00 264.36,341.00 265.03,341.00 C 265.70,341.00 266.37,341.00 267.04,341.00 C 267.70,341.00 268.37,341.00 269.04,341.00 C 269.71,341.00 270.38,341.00 271.05,341.00 C 271.71,341.00 272.38,341.00 273.05,341.00 C 273.72,341.00 274.39,341.00 275.06,341.00 C 275.72,341.00 276.39,341.00 277.06,341.00 C 277.73,341.00 278.40,341.00 279.07,341.00 C 279.74,341.00 280.40,341.00 281.07,341.00 C 281.74,341.00 282.41,341.00 283.08,341.00 C 283.75,341.00 284.41,341.00 285.08,341.00 C 285.75,341.00 286.42,341.00 287.09,341.00 C 287.76,341.00 288.43,341.00 289.09,341.00 C 289.76,341.00 290.43,341.00 291.10,341.00 C 291.77,341.00 292.44,341.00 293.10,341.00 C 293.77,341.00 294.44,341.00 295.11,341.00 C 295.78,341.00 296.45,341.00 297.11,341.00 C 297.78,341.00 298.45,341.00 299.12,341.00 C 299.79,341.00 300.46,341.00 301.13,341.00 C 301.79,341.00 302.46,341.00 303.13,341.00 C 303.80,341.00 304.47,341.00 305.14,341.00 C 305.80,341.00 306.47,341.00 307.14,341.00 C 307.81,341.00 308.48,341.00 309.15,341.00 C 309.82,341.00 310.48,341.01 311.15,341.00 C 311.82,340.99 312.50,341.06 313.15,340.96 C 313.81,340.86 314.44,340.59 315.08,340.41 C 315.72,340.22 316.36,340.04 317.01,339.85 C 317.65,339.67 318.29,339.49 318.94,339.30 C 319.58,339.12 320.22,338.94 320.86,338.75 C 321.51,338.57 322.15,338.39 322.79,338.20 C 323.43,338.02 324.08,337.83 324.72,337.65 C 325.36,337.47 326.12,337.44 326.65,337.10 C 327.18,336.76 327.51,336.16 327.91,335.64 C 328.31,335.11 328.65,334.52 329.02,333.97 C 329.39,333.41 329.80,332.87 330.13,332.30 C 330.46,331.73 330.86,331.18 331.00,330.56 C 331.14,329.93 330.99,329.22 330.99,328.55 C 330.99,327.88 330.98,327.21 330.98,326.54 C 330.98,325.88 330.97,325.21 330.97,324.54 C 330.97,323.87 330.96,323.20 330.96,322.53 C 330.96,321.87 330.95,321.20 330.95,320.53 C 330.95,319.86 330.94,319.19 330.94,318.52 C 330.94,317.86 330.93,317.19 330.93,316.52 C 330.93,315.85 330.93,315.18 330.92,314.51 C 330.92,313.84 330.92,313.18 330.91,312.51 C 330.91,311.84 330.91,311.17 330.90,310.50 C 330.90,309.83 330.90,309.17 330.89,308.50 C 330.89,307.83 330.89,307.16 330.88,306.49 C 330.88,305.82 330.88,305.16 330.87,304.49 C 330.87,303.82 330.87,303.15 330.86,302.48 C 330.86,301.81 330.86,301.14 330.86,300.48 C 330.85,299.81 330.85,299.14 330.85,298.47 C 330.84,297.80 330.84,297.13 330.84,296.47 C 330.83,295.80 330.83,295.13 330.83,294.46 C 330.82,293.79 330.82,293.12 330.82,292.45 C 330.81,291.79 330.81,291.12 330.81,290.45 C 330.80,289.78 330.80,289.11 330.80,288.44 C 330.80,287.78 330.79,287.11 330.79,286.44 C 330.79,285.77 330.78,285.10 330.78,284.43 C 330.78,283.77 330.77,283.10 330.77,282.43 C 330.77,281.76 330.76,281.09 330.76,280.42 C 330.76,279.75 330.75,279.09 330.75,278.42 C 330.75,277.75 330.74,277.08 330.74,276.41 C 330.74,275.74 330.73,275.08 330.73,274.41 C 330.73,273.74 330.73,273.07 330.72,272.40 C 330.72,271.73 330.72,271.07 330.71,270.40 C 330.71,269.73 330.71,269.06 330.70,268.39 C 330.70,267.72 330.70,267.05 330.69,266.39 C 330.69,265.72 330.69,265.05 330.68,264.38 C 330.68,263.71 330.68,263.04 330.67,262.38 C 330.67,261.71 330.67,261.04 330.67,260.37 C 330.66,259.70 330.66,259.03 330.66,258.37 C 330.65,257.70 330.65,257.03 330.65,256.36 C 330.64,255.69 330.64,255.02 330.64,254.35 C 330.63,253.69 330.63,253.02 330.63,252.35 C 330.62,251.68 330.62,251.01 330.62,250.34 C 330.61,249.68 330.61,249.01 330.61,248.34 C 330.61,247.67 330.60,247.00 330.60,246.33 C 330.60,245.66 330.59,245.00 330.59,244.33 C 330.59,243.66 330.58,242.99 330.58,242.32 C 330.58,241.65 330.57,240.99 330.57,240.32 C 330.57,239.65 330.56,238.98 330.56,238.31 C 330.56,237.64 330.55,236.98 330.55,236.31 C 330.55,235.64 330.54,234.97 330.54,234.30 C 330.54,233.63 330.54,232.96 330.53,232.30 C 330.53,231.63 330.53,230.96 330.52,230.29 C 330.52,229.62 330.52,228.95 330.51,228.29 C 330.51,227.62 330.51,226.95 330.50,226.28 C 330.50,225.61 330.50,224.94 330.49,224.28 C 330.49,223.61 330.49,222.94 330.48,222.27 C 330.48,221.60 330.48,220.93 330.48,220.26 C 330.47,219.60 330.47,218.93 330.47,218.26 C 330.46,217.59 330.46,216.92 330.46,216.25 C 330.45,215.59 330.45,214.92 330.45,214.25 C 330.44,213.58 330.44,212.91 330.44,212.24 C 330.43,211.57 330.43,210.91 330.43,210.24 C 330.42,209.57 330.42,208.90 330.42,208.23 C 330.41,207.56 330.41,206.90 330.41,206.23 C 330.41,205.56 330.40,204.89 330.40,204.22 C 330.40,203.55 330.39,202.89 330.39,202.22 C 330.39,201.55 330.38,200.88 330.38,200.21 C 330.38,199.54 330.37,198.87 330.37,198.21 C 330.37,197.54 330.36,196.87 330.36,196.20 C 330.36,195.53 330.35,194.86 330.35,194.20 C 330.35,193.53 330.35,192.86 330.34,192.19 C 330.34,191.52 330.34,190.85 330.33,190.19 C 330.33,189.52 330.33,188.85 330.32,188.18 C 330.32,187.51 330.32,186.84 330.31,186.17 C 330.31,185.51 330.31,184.84 330.30,184.17 C 330.30,183.50 330.30,182.83 330.29,182.16 C 330.29,181.50 330.29,180.83 330.29,180.16 C 330.28,179.49 330.28,178.82 330.28,178.15 C 330.27,177.48 330.27,176.82 330.27,176.15 C 330.26,175.48 330.26,174.81 330.26,174.14 C 330.25,173.47 330.25,172.81 330.25,172.14 C 330.24,171.47 330.24,170.80 330.24,170.13 C 330.23,169.46 330.23,168.80 330.23,168.13 C 330.22,167.46 330.22,166.79 330.22,166.12 C 330.22,165.45 330.21,164.78 330.21,164.12 C 330.21,163.45 330.20,162.78 330.20,162.11 C 330.20,161.44 330.19,160.77 330.19,160.11 C 330.19,159.44 330.18,158.77 330.18,158.10 C 330.18,157.43 330.17,156.76 330.17,156.10 C 330.17,155.43 330.16,154.76 330.16,154.09 C 330.16,153.42 330.16,152.75 330.15,152.08 C 330.15,151.42 330.15,150.75 330.14,150.08 C 330.14,149.41 330.14,148.74 330.13,148.07 C 330.13,147.41 330.13,146.74 330.12,146.07 C 330.12,145.40 330.12,144.73 330.11,144.06 C 330.11,143.40 330.11,142.73 330.10,142.06 C 330.10,141.39 330.10,140.72 330.10,140.05 C 330.09,139.38 330.09,138.72 330.09,138.05 C 330.08,137.38 330.08,136.71 330.08,136.04 C 330.07,135.37 330.07,134.71 330.07,134.04 C 330.06,133.37 330.06,132.70 330.06,132.03 C 330.05,131.36 330.05,130.69 330.05,130.03 C 330.04,129.36 330.04,128.69 330.04,128.02 C 330.03,127.35 330.03,126.68 330.03,126.02 C 330.03,125.35 330.02,124.68 330.02,124.01 C 330.02,123.34 330.01,122.67 330.01,122.01 C 330.01,121.34 357.67,120.67 330.00,120.00 C 302.33,119.33 191.90,118.10 164.00,118.00 Z" fill="url(#logoGrad)" fill-rule="evenodd" id="struct_ui_logo" stroke="none" /><style type="text/css"><![CDATA[.editable-logo { } :root { --logo-start: #108696; --logo-end: #0d203b; }]]></style></svg>